<svg width="856" height="856" viewBox="0 0 856 856" fill="none" xmlns="http://www.w3.org/2000/svg">
<rect width="856" height="856" rx="56" fill="#A02DD9"/>
<path d="M270.474 707.2C210.474 707.2 163.674 690.6 130.074 657.4C96.8742 624.2 80.2742 576.8 80.2742 515.2V280H177.474V511.6C177.474 586.8 208.674 624.4 271.074 624.4C301.474 624.4 324.674 615.4 340.674 597.4C356.674 579 364.674 550.4 364.674 511.6V280H460.674V515.2C460.674 576.8 443.874 624.2 410.274 657.4C377.074 690.6 330.474 707.2 270.474 707.2Z" fill="black"/>
<path fill-rule="evenodd" clip-rule="evenodd" d="M519.826 565.414C518.968 550.639 519.036 535.881 519.036 521.106C519.036 521.004 519.036 446.237 519.036 446.237C519.036 431.173 518.968 416.415 519.826 401.648C520.598 388.223 522.245 375.147 525.926 362.129C533.664 334.728 549.828 310.799 572.744 293.502C595.514 276.307 623.388 267 652.01 267C680.665 267 708.523 276.307 731.292 293.502C754.2 310.799 770.372 334.728 778.111 362.129C781.791 375.147 783.43 388.223 784.211 401.648C785.069 416.415 784.991 431.173 784.991 445.948C784.991 446.05 785 520.834 785 520.834C784.991 535.881 785.069 550.639 784.211 565.414C783.43 578.83 781.791 591.907 778.111 604.924C770.372 632.326 754.2 656.255 731.292 673.552C708.523 690.747 680.665 700.062 652.018 700.062C623.388 700.062 595.514 690.747 572.744 673.552C549.828 656.255 533.664 632.326 525.926 604.924C522.245 591.907 520.598 578.83 519.826 565.414Z" fill="#32D74B"/>
<mask id="mask0" mask-type="alpha" maskUnits="userSpaceOnUse" x="519" y="267" width="266" height="434">
<path fill-rule="evenodd" clip-rule="evenodd" d="M519.791 565.448C518.933 550.673 519.001 535.915 519.001 521.14C519.001 521.038 519.001 446.271 519.001 446.271C519.001 431.208 518.933 416.45 519.791 401.683C520.563 388.258 522.21 375.181 525.891 362.164C533.629 334.762 549.793 310.833 572.709 293.536C595.479 276.341 623.353 267.035 651.975 267.035C680.63 267.035 708.488 276.341 731.257 293.536C754.165 310.833 770.337 334.762 778.076 362.164C781.756 375.181 783.395 388.258 784.176 401.683C785.034 416.45 784.956 431.208 784.956 445.983C784.956 446.085 784.965 520.869 784.965 520.869C784.956 535.915 785.034 550.673 784.176 565.448C783.395 578.865 781.756 591.942 778.076 604.959C770.337 632.361 754.165 656.29 731.257 673.587C708.488 690.782 680.63 700.097 651.983 700.097C623.353 700.097 595.479 690.782 572.709 673.587C549.793 656.29 533.629 632.361 525.891 604.959C522.21 591.942 520.563 578.865 519.791 565.448Z" fill="white"/>
</mask>
<g mask="url(#mask0)">
<g filter="url(#filter0_dd)">
<path fill-rule="evenodd" clip-rule="evenodd" d="M767.84 398.617C767.84 335.306 715.984 283.983 652.017 283.983C588.05 283.983 536.194 335.306 536.194 398.617C536.194 461.928 588.05 513.251 652.017 513.251C715.984 513.251 767.84 461.928 767.84 398.617Z" fill="white"/>
<path d="M769.816 398.617C769.816 334.196 717.056 282.007 652.017 282.007C586.978 282.007 534.218 334.196 534.218 398.617C534.218 463.038 586.978 515.227 652.017 515.227C717.056 515.227 769.816 463.038 769.816 398.617Z" stroke="black" stroke-opacity="0.04" stroke-width="3.95161"/>
</g>
</g>
<defs>
<filter id="filter0_dd" x="469.017" y="240.515" width="366.001" height="363.623" filterUnits="userSpaceOnUse" color-interpolation-filters="sRGB">
<feFlood flood-opacity="0" result="BackgroundImageFix"/>
<feColorMatrix in="SourceAlpha" type="matrix" values="0 0 0 0 0 0 0 0 0 0 0 0 0 0 0 0 0 0 127 0"/>
<feOffset dy="23.7097"/>
<feGaussianBlur stdDeviation="3.95161"/>
<feColorMatrix type="matrix" values="0 0 0 0 0 0 0 0 0 0 0 0 0 0 0 0 0 0 0.06 0"/>
<feBlend mode="normal" in2="BackgroundImageFix" result="effect1_dropShadow"/>
<feColorMatrix in="SourceAlpha" type="matrix" values="0 0 0 0 0 0 0 0 0 0 0 0 0 0 0 0 0 0 127 0"/>
<feOffset dy="23.7097"/>
<feGaussianBlur stdDeviation="31.6129"/>
<feColorMatrix type="matrix" values="0 0 0 0 0 0 0 0 0 0 0 0 0 0 0 0 0 0 0.15 0"/>
<feBlend mode="normal" in2="effect1_dropShadow" result="effect2_dropShadow"/>
<feBlend mode="normal" in="SourceGraphic" in2="effect2_dropShadow" result="shape"/>
</filter>
</defs>
</svg>
