<svg width="256" height="49" viewBox="0 0 256 49" fill="none" xmlns="http://www.w3.org/2000/svg">
<rect width="47.5125" height="47.5125" rx="3.10829" fill="#A02DD9"/>
<path d="M15.0127 39.0048C11.6824 39.0048 9.08473 38.0834 7.21975 36.2406C5.37698 34.3979 4.45559 31.7669 4.45559 28.3478V15.293H9.8507V28.148C9.8507 32.322 11.5825 34.409 15.046 34.409C16.7333 34.409 18.0211 33.9094 18.9092 32.9103C19.7972 31.889 20.2413 30.3016 20.2413 28.148V15.293H25.5698V28.3478C25.5698 31.7669 24.6373 34.3979 22.7723 36.2406C20.9295 38.0834 18.343 39.0048 15.0127 39.0048Z" fill="black"/>
<path fill-rule="evenodd" clip-rule="evenodd" d="M28.8544 31.382C28.8068 30.5619 28.8106 29.7428 28.8106 28.9227C28.8106 28.917 28.8106 24.7671 28.8106 24.7671C28.8106 23.931 28.8068 23.1118 28.8544 22.2922C28.8973 21.547 28.9887 20.8212 29.193 20.0987C29.6225 18.5777 30.5197 17.2496 31.7917 16.2895C33.0555 15.3351 34.6027 14.8185 36.1913 14.8185C37.7819 14.8185 39.3281 15.3351 40.5919 16.2895C41.8634 17.2496 42.7611 18.5777 43.1906 20.0987C43.3949 20.8212 43.4858 21.547 43.5292 22.2922C43.5768 23.1118 43.5725 23.931 43.5725 24.7511C43.5725 24.7567 43.573 28.9076 43.573 28.9076C43.5725 29.7428 43.5768 30.5619 43.5292 31.382C43.4858 32.1267 43.3949 32.8525 43.1906 33.5751C42.7611 35.096 41.8634 36.4242 40.5919 37.3843C39.3281 38.3387 37.7819 38.8557 36.1918 38.8557C34.6027 38.8557 33.0555 38.3387 31.7917 37.3843C30.5197 36.4242 29.6225 35.096 29.193 33.5751C28.9887 32.8525 28.8973 32.1267 28.8544 31.382Z" fill="#32D74B"/>
<mask id="mask0" mask-type="alpha" maskUnits="userSpaceOnUse" x="28" y="14" width="16" height="25">
<path fill-rule="evenodd" clip-rule="evenodd" d="M28.8511 31.3853C28.8035 30.5652 28.8073 29.7461 28.8073 28.926C28.8073 28.9203 28.8073 24.7704 28.8073 24.7704C28.8073 23.9343 28.8035 23.1151 28.8511 22.2955C28.8939 21.5503 28.9854 20.8245 29.1897 20.102C29.6192 18.581 30.5164 17.2529 31.7883 16.2928C33.0522 15.3384 34.5993 14.8218 36.188 14.8218C37.7785 14.8218 39.3247 15.3384 40.5886 16.2928C41.8601 17.2529 42.7577 18.581 43.1872 20.102C43.3915 20.8245 43.4825 21.5503 43.5258 22.2955C43.5734 23.1151 43.5692 23.9343 43.5692 24.7544C43.5692 24.76 43.5696 28.9109 43.5696 28.9109C43.5692 29.7461 43.5734 30.5652 43.5258 31.3853C43.4825 32.13 43.3915 32.8558 43.1872 33.5784C42.7577 35.0993 41.8601 36.4275 40.5886 37.3876C39.3247 38.342 37.7785 38.859 36.1884 38.859C34.5993 38.859 33.0522 38.342 31.7883 37.3876C30.5164 36.4275 29.6192 35.0993 29.1897 33.5784C28.9854 32.8558 28.8939 32.13 28.8511 31.3853Z" fill="white"/>
</mask>
<g mask="url(#mask0)">
<g filter="url(#filter0_dd)">
<path fill-rule="evenodd" clip-rule="evenodd" d="M42.6191 22.1253C42.6191 18.6112 39.7408 15.7625 36.1903 15.7625C32.6398 15.7625 29.7615 18.6112 29.7615 22.1253C29.7615 25.6394 32.6398 28.4881 36.1903 28.4881C39.7408 28.4881 42.6191 25.6394 42.6191 22.1253Z" fill="white"/>
<path d="M42.7288 22.1253C42.7288 18.5496 39.8003 15.6529 36.1903 15.6529C32.5803 15.6529 29.6519 18.5496 29.6519 22.1253C29.6519 25.701 32.5803 28.5978 36.1903 28.5978C39.8003 28.5978 42.7288 25.701 42.7288 22.1253Z" stroke="black" stroke-opacity="0.04" stroke-width="0.219335"/>
</g>
</g>
<path d="M65.8881 39.2476C63.8552 39.2476 62.0233 38.834 60.3922 38.0066C58.7848 37.1557 57.5202 35.9856 56.5983 34.4964C55.7001 33.0072 55.251 31.3171 55.251 29.426C55.251 27.535 55.7001 25.8449 56.5983 24.3557C57.5202 22.8665 58.7848 21.7082 60.3922 20.8809C62.0233 20.0299 63.8552 19.6044 65.8881 19.6044C67.8973 19.6044 69.6465 20.0299 71.1357 20.8809C72.6486 21.7082 73.7477 22.9019 74.4332 24.4621L70.1429 26.7668C69.1501 25.0175 67.72 24.1429 65.8526 24.1429C64.4107 24.1429 63.217 24.6157 62.2715 25.5612C61.3259 26.5067 60.8532 27.795 60.8532 29.426C60.8532 31.0571 61.3259 32.3453 62.2715 33.2909C63.217 34.2364 64.4107 34.7091 65.8526 34.7091C67.7437 34.7091 69.1738 33.8345 70.1429 32.0853L74.4332 34.4255C73.7477 35.9383 72.6486 37.1202 71.1357 37.9712C69.6465 38.8222 67.8973 39.2476 65.8881 39.2476ZM89.0739 19.6044C91.4378 19.6044 93.3406 20.3136 94.7825 21.7319C96.2481 23.1501 96.9809 25.2539 96.9809 28.0432V38.964H91.4496V28.8942C91.4496 27.3813 91.1186 26.2585 90.4568 25.5258C89.7949 24.7693 88.8376 24.3911 87.5848 24.3911C86.1901 24.3911 85.0791 24.8284 84.2518 25.703C83.4245 26.554 83.0108 27.8305 83.0108 29.5324V38.964H77.4795V12.6548H83.0108V21.8737C83.7436 21.1409 84.63 20.5854 85.6701 20.2072C86.7101 19.8054 87.8448 19.6044 89.0739 19.6044ZM109.689 19.6044C112.644 19.6044 114.913 20.3136 116.497 21.7319C118.08 23.1265 118.872 25.2421 118.872 28.0787V38.964H113.696V36.5884C112.655 38.3612 110.717 39.2476 107.881 39.2476C106.415 39.2476 105.139 38.9994 104.051 38.503C102.988 38.0066 102.172 37.3211 101.605 36.4465C101.037 35.5719 100.754 34.5791 100.754 33.4681C100.754 31.6953 101.416 30.3006 102.739 29.2842C104.087 28.2678 106.155 27.7596 108.944 27.7596H113.341C113.341 26.554 112.975 25.6321 112.242 24.9939C111.509 24.332 110.41 24.0011 108.944 24.0011C107.928 24.0011 106.923 24.1666 105.93 24.4975C104.961 24.8048 104.134 25.2303 103.448 25.774L101.463 21.9091C102.503 21.1764 103.744 20.609 105.186 20.2072C106.651 19.8054 108.152 19.6044 109.689 19.6044ZM109.263 35.5247C110.209 35.5247 111.048 35.3119 111.781 34.8864C112.514 34.4373 113.034 33.7873 113.341 32.9363V30.9862H109.547C107.278 30.9862 106.143 31.7307 106.143 33.2199C106.143 33.9291 106.415 34.4964 106.959 34.9219C107.526 35.3237 108.294 35.5247 109.263 35.5247ZM123.878 12.6548H129.41V38.964H123.878V12.6548ZM134.543 12.6548H140.074V38.964H134.543V12.6548ZM163.894 29.497C163.894 29.5679 163.858 30.0643 163.788 30.9862H149.356C149.617 32.1681 150.231 33.1018 151.2 33.7873C152.169 34.4728 153.375 34.8155 154.817 34.8155C155.81 34.8155 156.684 34.6737 157.441 34.39C158.221 34.0827 158.942 33.61 159.604 32.9717L162.547 36.1629C160.75 38.2194 158.126 39.2476 154.675 39.2476C152.524 39.2476 150.621 38.834 148.966 38.0066C147.312 37.1557 146.035 35.9856 145.137 34.4964C144.239 33.0072 143.79 31.3171 143.79 29.426C143.79 27.5586 144.227 25.8803 145.102 24.3911C146 22.8783 147.217 21.7082 148.754 20.8809C150.314 20.0299 152.051 19.6044 153.966 19.6044C155.833 19.6044 157.523 20.0063 159.036 20.81C160.549 21.6137 161.731 22.7719 162.582 24.2848C163.457 25.774 163.894 27.5114 163.894 29.497ZM154.001 23.7884C152.749 23.7884 151.697 24.1429 150.846 24.8521C149.995 25.5612 149.475 26.5304 149.286 27.7596H158.682C158.493 26.554 157.973 25.5967 157.122 24.8875C156.271 24.1548 155.231 23.7884 154.001 23.7884ZM179.171 19.6044C181.535 19.6044 183.438 20.3136 184.879 21.7319C186.345 23.1501 187.078 25.2539 187.078 28.0432V38.964H181.547V28.8942C181.547 27.3813 181.216 26.2585 180.554 25.5258C179.892 24.7693 178.935 24.3911 177.682 24.3911C176.287 24.3911 175.176 24.8284 174.349 25.703C173.521 26.554 173.108 27.8305 173.108 29.5324V38.964H167.576V19.8881H172.86V22.1219C173.592 21.3182 174.502 20.7036 175.59 20.2781C176.677 19.829 177.871 19.6044 179.171 19.6044ZM211.978 19.8881V35.7729C211.978 39.2713 211.068 41.8715 209.248 43.5734C207.428 45.2753 204.768 46.1263 201.27 46.1263C199.426 46.1263 197.677 45.9018 196.022 45.4526C194.368 45.0035 192.997 44.3535 191.909 43.5025L194.108 39.5313C194.911 40.1932 195.928 40.7132 197.157 41.0914C198.386 41.4933 199.615 41.6942 200.845 41.6942C202.759 41.6942 204.166 41.2569 205.064 40.3823C205.986 39.5313 206.447 38.2312 206.447 36.482V35.6665C205.005 37.2502 202.996 38.0421 200.419 38.0421C198.67 38.0421 197.062 37.6639 195.597 36.9075C194.155 36.1274 193.009 35.0401 192.158 33.6454C191.307 32.2508 190.881 30.6434 190.881 28.8233C190.881 27.0031 191.307 25.3958 192.158 24.0011C193.009 22.6065 194.155 21.5309 195.597 20.7745C197.062 19.9945 198.67 19.6044 200.419 19.6044C203.185 19.6044 205.289 20.5145 206.73 22.3346V19.8881H211.978ZM201.518 33.5036C202.984 33.5036 204.178 33.0781 205.099 32.2271C206.045 31.3525 206.518 30.2179 206.518 28.8233C206.518 27.4286 206.045 26.3058 205.099 25.4548C204.178 24.5802 202.984 24.1429 201.518 24.1429C200.053 24.1429 198.847 24.5802 197.902 25.4548C196.956 26.3058 196.483 27.4286 196.483 28.8233C196.483 30.2179 196.956 31.3525 197.902 32.2271C198.847 33.0781 200.053 33.5036 201.518 33.5036ZM235.812 29.497C235.812 29.5679 235.777 30.0643 235.706 30.9862H221.275C221.535 32.1681 222.149 33.1018 223.119 33.7873C224.088 34.4728 225.293 34.8155 226.735 34.8155C227.728 34.8155 228.603 34.6737 229.359 34.39C230.139 34.0827 230.86 33.61 231.522 32.9717L234.465 36.1629C232.668 38.2194 230.044 39.2476 226.593 39.2476C224.442 39.2476 222.539 38.834 220.885 38.0066C219.23 37.1557 217.954 35.9856 217.055 34.4964C216.157 33.0072 215.708 31.3171 215.708 29.426C215.708 27.5586 216.145 25.8803 217.02 24.3911C217.918 22.8783 219.136 21.7082 220.672 20.8809C222.232 20.0299 223.97 19.6044 225.884 19.6044C227.752 19.6044 229.442 20.0063 230.955 20.81C232.467 21.6137 233.649 22.7719 234.5 24.2848C235.375 25.774 235.812 27.5114 235.812 29.497ZM225.92 23.7884C224.667 23.7884 223.615 24.1429 222.764 24.8521C221.913 25.5612 221.393 26.5304 221.204 27.7596H230.6C230.411 26.554 229.891 25.5967 229.04 24.8875C228.189 24.1548 227.149 23.7884 225.92 23.7884ZM245.912 39.2476C244.329 39.2476 242.78 39.0585 241.268 38.6803C239.755 38.2785 238.549 37.7821 237.651 37.1911L239.495 33.2199C240.346 33.7636 241.374 34.2127 242.579 34.5673C243.785 34.8982 244.967 35.0637 246.125 35.0637C248.465 35.0637 249.635 34.4846 249.635 33.3263C249.635 32.7826 249.316 32.3926 248.678 32.1562C248.04 31.9199 247.059 31.7189 245.735 31.5535C244.175 31.3171 242.887 31.0452 241.87 30.738C240.854 30.4307 239.967 29.887 239.211 29.1069C238.478 28.3269 238.112 27.2159 238.112 25.774C238.112 24.5684 238.455 23.5047 239.14 22.5828C239.849 21.6373 240.866 20.9045 242.189 20.3845C243.537 19.8645 245.121 19.6044 246.941 19.6044C248.288 19.6044 249.624 19.7581 250.947 20.0654C252.295 20.349 253.406 20.7509 254.28 21.2709L252.437 25.2066C250.758 24.2611 248.926 23.7884 246.941 23.7884C245.759 23.7884 244.872 23.9538 244.281 24.2848C243.69 24.6157 243.395 25.0412 243.395 25.5612C243.395 26.1522 243.714 26.5658 244.352 26.8022C244.991 27.0386 246.007 27.2632 247.402 27.4759C248.962 27.7359 250.238 28.0196 251.231 28.3269C252.224 28.6105 253.087 29.1424 253.819 29.9224C254.552 30.7025 254.919 31.7898 254.919 33.1845C254.919 34.3664 254.564 35.4183 253.855 36.3402C253.146 37.2621 252.106 37.983 250.735 38.503C249.387 38.9994 247.78 39.2476 245.912 39.2476Z" fill="white"/>
<defs>
<filter id="filter0_dd" x="26.0328" y="13.3499" width="20.3149" height="20.183" filterUnits="userSpaceOnUse" color-interpolation-filters="sRGB">
<feFlood flood-opacity="0" result="BackgroundImageFix"/>
<feColorMatrix in="SourceAlpha" type="matrix" values="0 0 0 0 0 0 0 0 0 0 0 0 0 0 0 0 0 0 127 0"/>
<feOffset dy="1.31601"/>
<feGaussianBlur stdDeviation="0.219335"/>
<feColorMatrix type="matrix" values="0 0 0 0 0 0 0 0 0 0 0 0 0 0 0 0 0 0 0.06 0"/>
<feBlend mode="normal" in2="BackgroundImageFix" result="effect1_dropShadow"/>
<feColorMatrix in="SourceAlpha" type="matrix" values="0 0 0 0 0 0 0 0 0 0 0 0 0 0 0 0 0 0 127 0"/>
<feOffset dy="1.31601"/>
<feGaussianBlur stdDeviation="1.75468"/>
<feColorMatrix type="matrix" values="0 0 0 0 0 0 0 0 0 0 0 0 0 0 0 0 0 0 0.15 0"/>
<feBlend mode="normal" in2="effect1_dropShadow" result="effect2_dropShadow"/>
<feBlend mode="normal" in="SourceGraphic" in2="effect2_dropShadow" result="shape"/>
</filter>
</defs>
</svg>
